 http://www.torrentkit.com  

who care what we share? support us by seeding back,
and don\'t forget to visit

---------------------------------------------------------------------------

Poster
 
http://ecx.images-amazon.com/images/I/51HLYg0n9tL.jpg


[info][b]
File size: 702 MiB
Duration: 1h 37mn
Overall bit rate: 1 007 Kbps
Writing application: AVI-Mux GUI 1.17.8.3, Feb 16 201019:42:50

[color=blue]Video[/color]
ID: 0
Format: MPEG-4 Visual
Format profile: Advanced Simple@L5
Format settings, BVOP: Yes
Format settings, QPel: No
Format settings, GMC: No warppoints
Format settings, Matrix: Default (H.263)
Codec ID: XVID
Codec ID/Hint: XviD
Duration: 1h 37mn
Bit rate: 876 Kbps
Width: 608 pixels
Height: 336 pixels
Display aspect ratio: 16:9
Frame rate: 23.976 fps
Color space: YUV
Chroma subsampling: 4:2:0
Bit depth: 8 bits
Scan type: Progressive
Compression mode: Lossy
Bits/(Pixel*Frame): 0.179
Stream size: 610 MiB (87%)
Writing library: XviD 1.2.1 (UTC 2008-12-04)

[color=blue]Audio[/color]
ID: 1
Format: MPEG Audio
Format version: Version 1
Format profile: Layer 3
Mode: Joint stereo
Mode extension: MS Stereo
Codec ID: 55
Codec ID/Hint: MP3
Duration: 1h 37mn
Bit rate mode: Constant
Bit rate: 128 Kbps
Channel(s): 2 channels
Sampling rate: 48.0 KHz
Compression mode: Lossy
Stream size: 89.1 MiB (13%)
Alignment: Aligned on interleaves
Interleave, duration: 841 ms (20.16 video frames)
Interleave, preload duration: 216 ms
Title: VTS_01_1 T80 3_2ch 448Kbps DELAY 0ms
Writing library: LAME3.98r
Encoding settings: -m j -V 4 -q 2 -lowpass 17 -b 128

[color=red]Imdb Link[/color]:[url]http://www.imdb.com/title/tt1726622/[/url]

[plot]
A legendary poker playing outlaw, Triggerman, arrives to town for the wildest gambling tournament this side of the west. As the tournament begins he'll get caught up in a violent showdown as bandits try to cheat their way to the finals. With his hand on the trigger this outlaw won't let anything come between him and his winning hand.

[note]
[color=red]
Sample Provided
[/color]

[color=blue]Greets[/color]: 
[color=red]
*THC*,HiTM4N,MUSE,PrisM,DiGiTaL iNK,ViSiON,LEGi0N,FLAWL3SS,Rx,Hibees,aXXo,xXTHORNXx,Noir,IMAGiNE
PDU,ELEKTRI4KA,KART3LDVD,CTFX,202122, StevieL,skrufern + Zia,Smelly and Fabreezy bro.
All the people that make p2p what it is...THANKS[/color]
[/b]

[screens]
[img]http://leetleech.org/images/76460323093913258843.png[/img]
[img]http://leetleech.org/images/86344851991249255346.png[/img]
[img]http://leetleech.org/images/91209167360720242129.png[/img]
[img]http://leetleech.org/images/20640131439290252477.png[/img]



----------------------------------------------------------------------------
 
http://www.torrentkit.com thanks for supporting with server cast,